{"title":"The.Outsiders.1983.1080p.BluRay.DTS.x264-GKNByNW","uid":11173032,"size":8562784609,"categoryP":"video","categoryS":"hd___movies","magnet":"?xt=urn:btih:30a135c4955d34a8d4746afd8839d0cd7131e07d&amp;dn=The.Outsiders.1983.1080p.BluRay.DTS.x264-GKNByNW&amp;tr=udp%3A%2F%2Ftracker.openbittorrent.com%3A80&amp;tr=udp%3A%2F%2Fopen.demonii.com%3A1337&amp;tr=udp%3A%2F%2Ftracker.coppersurfer.tk%3A6969&amp;tr=udp%3A%2F%2Fexodus.desync.com%3A6969","seeders":1,"leechers":0,"uploader":"GKNByNW","files":8,"time":1412725693,"description":"Release Title : The.Outsiders.1983.1080p.BluRay.DTS.x264-GKNByNW\nRelease Date : 25 March 1983 (USA)\nRelease Length : 1:54:56\nGenre : Crime | Drama\nLanguage : English\nSource : The.Outsiders.1983.DUAL.COMPLETE.BLURAY-THEORY\nTotal Size : 7.96GB\n\nimdB\n---- &lt;a href=&quot;\nhttp://www.imdb.com/title/tt0086066/&quot; rel=&quot;nofollow&quot; target=&quot;_NEW&quot;&gt;\nhttp://www.imdb.com/title/tt0086066/&lt;/a&gt;\n\nStoryline: The movie details a town split between the wealthy\nSouth Zone gang called 'The Socials' and the poor North Zone\ngang called 'The Greasers'. Dallas Winston, Ponyboy Curtis\nand Johnny Cade from 'The Greasers' befriend the rich Cherry\nValance and Marcia at a drive-in. Later that night, a group\nof 'The Socs' chase and beat up Johnny and attempt to drown\nPonyboy in a fountain. However, Johnny stabs one Soc and kills\nhim, saving Ponyboy. The desperate boys seek Dallas who finds\na hideout for them in a nearby town. One week later, Johnny\nand Ponyboy decide to return to their hometown, with Dallas,\nto claim the murder as self-defense. But on their way back,\nthey see the church on fire and Ponyboy and Johnny help the\nchildren trapped in the church and become heroes. However\nJohnny is badly wounded and confined to the hospital.\nMeanwhile The Socs and The Greasers prepare to fight.\n\nCast\n----\nC. Thomas Howell\t~\tPonyboy Curtis\nMatt Dillon\t\t~\tDallas Winston\nRalph Macchio\t\t~\tJohnny Cade\nPatrick Swayze\t\t~\tDarrel Curtis\nRob Lowe\t\t~\tSodapop Curtis\nEmilio Estevez\t\t~\tTwo-Bit Matthews\nTom Cruise\t\t~\tSteve Randle\nGlenn Withrow\t\t~\tTim Shepard\nDiane Lane\t\t~\tCherry Valance\nLeif Garrett\t\t~\tBob Sheldon\nDarren Dalton\t\t~\tRandy Anderson\nMichelle Meyrink\t~\tMarcia\nTom Waits\t\t~\tBuck Merrill\nGailard Sartain\t\t~\tJerry\nWilliam Smith\t\t~\tStore Clerk\n\n~~~~~~~~~~~~~~~~~~~~\n\nVideo Information\n-----------------\nID : 1\nFormat : AVC\nFormat/Info : Advanced Video Codec\nFormat profile : &lt;a class=&quot;__cf_email__&quot; href=&quot;/cdn-cgi/l/email-protection&quot; data-cfemail=&quot;125a7b757a525e263c23&quot;&gt;[email&amp;#160;protected]&lt;/a&gt;&lt;script cf-hash='f9e31' type=&quot;text/javascript&quot;&gt;\n/* &lt;![CDATA[ */!function(){try{var t=&quot;currentScript&quot;in document?document.currentScript:function(){for(var t=document.getElementsByTagName(&quot;script&quot;),e=t.length;e--;)if(t[e].getAttribute(&quot;cf-hash&quot;))return t[e]}();if(t&amp;&amp;t.previousSibling){var e,r,n,i,c=t.previousSibling,a=c.getAttribute(&quot;data-cfemail&quot;);if(a){for(e=&quot;&quot;,r=parseInt(a.substr(0,2),16),n=2;a.length-n;n+=2)i=parseInt(a.substr(n,2),16)^r,e+=String.fromCharCode(i);e=document.createTextNode(e),c.parentNode.replaceChild(e,c)}}}catch(u){}}();/* ]]&gt; */&lt;/script&gt;\nFormat settings, CABAC : Yes\nFormat settings, ReFrames : 5 frames\nCodec ID : V_MPEG4/ISO/AVC\nDuration : 1h 54mn\nBit rate : 8 396 Kbps\nWidth : 1 920 pixels\nHeight : 800 pixels\nDisplay aspect ratio : 2.40:1\nFrame rate mode : Constant\nFrame rate : 23.976 fps\nColor space : YUV\nChroma subsampling : 4:2:0\nBit depth : 8 bits\nScan type : Progressive\nBits/(Pixel*Frame) : 0.228\nStream size : 6.59 GiB (83%)\nWriting library : x264 core 138 r2358 9e941d1\n\nAudio Information\n-----------------\nID : 2\nFormat : DTS\nFormat/Info : Digital Theater Systems\nMode : 16\nFormat settings, Endianness : Big\nCodec ID : A_DTS\nDuration : 1h 54mn\nBit rate mode : Constant\nBit rate : 1 509 Kbps\nChannel(s) : 6 channels\nChannel positions : Front: L C R, Side: L R, LFE\nSampling rate : 48.0 KHz\nBit depth : 24 bits\nCompression mode : Lossy\nStream size : 1.21 GiB (15%)\nTitle : English\nLanguage : English\nDefault : Yes\nForced : No\n\nText #1 Information\n----------------\nID : 3\nFormat : PGS\nMuxing mode : zlib\nCodec ID : S_HDMV/PGS\nCodec ID/Info : The same subtitle format used on BDs/HD-DVDs\nTitle : English SDH\nLanguage : English\nDefault : No\nForced : No\n\nChapters : Yes\n\n~~~~~~~~~~~~~~~~~~~~\n\nPlease seed as much as you take.\n\n---==* GKNByNW *==---","torrent":{"xt":"urn:btih:30a135c4955d34a8d4746afd8839d0cd7131e07d","amp;dn":"The.Outsiders.1983.1080p.BluRay.DTS.x264-GKNByNW","amp;tr":["udp%3A%2F%2Ftracker.openbittorrent.com%3A80","udp%3A%2F%2Fopen.demonii.com%3A1337","udp%3A%2F%2Ftracker.coppersurfer.tk%3A6969","udp%3A%2F%2Fexodus.desync.com%3A6969"],"infoHash":"30a135c4955d34a8d4746afd8839d0cd7131e07d","infoHashBuffer":{"type":"Buffer","data":[48,161,53,196,149,93,52,168,212,116,106,253,136,57,208,205,113,49,224,125]},"announce":[],"urlList":[]}}